<svg xmlns="http://www.w3.org/2000/svg" version="1.1" xmlns:xlink="http://www.w3.org/1999/xlink" xmlns:svgjs="http://svgjs.dev/svgjs" viewBox="0 0 800 800"><defs><linearGradient x1="50%" y1="0%" x2="50%" y2="100%" id="ffflurry-grad" gradientTransform="rotate(270)"><stop stop-color="hsl(240, 100%, 3%)" stop-opacity="1" offset="0%"></stop><stop stop-color="hsl(0, 0%, 10%)" stop-opacity="1" offset="45%"></stop><stop stop-color="hsl(180, 85%, 13%)" stop-opacity="1" offset="100%"></stop></linearGradient></defs><rect width="100%" height="100%" fill="hsl(0, 0%, 0%)"></rect><g fill="url(#ffflurry-grad)"><rect width="109" height="3" x="171.5" y="761.5" rx="1.5" transform="rotate(45, 226, 763)" opacity="0.39"></rect><rect width="484" height="3" x="239" y="34.5" rx="1.5" transform="rotate(45, 481, 36)" opacity="0.19"></rect><rect width="246" height="3" x="22" y="387.5" rx="1.5" transform="rotate(45, 145, 389)" opacity="0.44"></rect><rect width="116" height="3" x="716" y="306.5" rx="1.5" transform="rotate(45, 774, 308)" opacity="0.88"></rect><rect width="409" height="3" x="232.5" y="708.5" rx="1.5" transform="rotate(45, 437, 710)" opacity="0.59"></rect><rect width="160" height="3" x="142" y="48.5" rx="1.5" transform="rotate(45, 222, 50)" opacity="0.96"></rect><rect width="373" height="3" x="-124.5" y="535.5" rx="1.5" transform="rotate(45, 62, 537)" opacity="0.76"></rect><rect width="44" height="3" x="109" y="491.5" rx="1.5" transform="rotate(45, 131, 493)" opacity="0.50"></rect><rect width="318" height="3" x="254" y="438.5" rx="1.5" transform="rotate(45, 413, 440)" opacity="0.16"></rect><rect width="575" height="3" x="174.5" y="500.5" rx="1.5" transform="rotate(45, 462, 502)" opacity="0.66"></rect><rect width="82" height="3" x="237" y="262.5" rx="1.5" transform="rotate(45, 278, 264)" opacity="0.93"></rect><rect width="306" height="3" x="466" y="95.5" rx="1.5" transform="rotate(45, 619, 97)" opacity="0.75"></rect><rect width="413" height="3" x="57.5" y="575.5" rx="1.5" transform="rotate(45, 264, 577)" opacity="0.13"></rect><rect width="299" height="3" x="205.5" y="74.5" rx="1.5" transform="rotate(45, 355, 76)" opacity="0.63"></rect><rect width="556" height="3" x="-241" y="756.5" rx="1.5" transform="rotate(45, 37, 758)" opacity="0.43"></rect><rect width="307" height="3" x="-17.5" y="434.5" rx="1.5" transform="rotate(45, 136, 436)" opacity="0.26"></rect><rect width="233" height="3" x="398.5" y="209.5" rx="1.5" transform="rotate(45, 515, 211)" opacity="0.98"></rect><rect width="467" height="3" x="282.5" y="750.5" rx="1.5" transform="rotate(45, 516, 752)" opacity="0.41"></rect><rect width="151" height="3" x="596.5" y="669.5" rx="1.5" transform="rotate(45, 672, 671)" opacity="0.84"></rect><rect width="360" height="3" x="409" y="387.5" rx="1.5" transform="rotate(45, 589, 389)" opacity="0.48"></rect><rect width="183" height="3" x="-12.5" y="84.5" rx="1.5" transform="rotate(45, 79, 86)" opacity="0.78"></rect><rect width="569" height="3" x="-167.5" y="744.5" rx="1.5" transform="rotate(45, 117, 746)" opacity="0.94"></rect><rect width="210" height="3" x="427" y="451.5" rx="1.5" transform="rotate(45, 532, 453)" opacity="0.80"></rect><rect width="530" height="3" x="473" y="760.5" rx="1.5" transform="rotate(45, 738, 762)" opacity="0.14"></rect><rect width="154" height="3" x="528" y="171.5" rx="1.5" transform="rotate(45, 605, 173)" opacity="0.94"></rect><rect width="48" height="3" x="13" y="600.5" rx="1.5" transform="rotate(45, 37, 602)" opacity="0.35"></rect><rect width="160" height="3" x="697" y="584.5" rx="1.5" transform="rotate(45, 777, 586)" opacity="0.60"></rect><rect width="279" height="3" x="514.5" y="279.5" rx="1.5" transform="rotate(45, 654, 281)" opacity="1.00"></rect><rect width="736" height="3" x="254" y="747.5" rx="1.5" transform="rotate(45, 622, 749)" opacity="0.51"></rect><rect width="375" height="3" x="394.5" y="272.5" rx="1.5" transform="rotate(45, 582, 274)" opacity="0.62"></rect><rect width="449" height="3" x="212.5" y="595.5" rx="1.5" transform="rotate(45, 437, 597)" opacity="0.70"></rect><rect width="476" height="3" x="529" y="186.5" rx="1.5" transform="rotate(45, 767, 188)" opacity="0.32"></rect><rect width="73" height="3" x="236.5" y="354.5" rx="1.5" transform="rotate(45, 273, 356)" opacity="0.10"></rect><rect width="158" height="3" x="-6" y="218.5" rx="1.5" transform="rotate(45, 73, 220)" opacity="0.61"></rect><rect width="188" height="3" x="632" y="535.5" rx="1.5" transform="rotate(45, 726, 537)" opacity="0.90"></rect><rect width="271" height="3" x="607.5" y="236.5" rx="1.5" transform="rotate(45, 743, 238)" opacity="0.83"></rect><rect width="176" height="3" x="213" y="433.5" rx="1.5" transform="rotate(45, 301, 435)" opacity="0.91"></rect><rect width="778" height="3" x="97" y="319.5" rx="1.5" transform="rotate(45, 486, 321)" opacity="0.77"></rect><rect width="212" height="3" x="266" y="518.5" rx="1.5" transform="rotate(45, 372, 520)" opacity="0.72"></rect><rect width="263" height="3" x="631.5" y="389.5" rx="1.5" transform="rotate(45, 763, 391)" opacity="0.93"></rect><rect width="339" height="3" x="374.5" y="116.5" rx="1.5" transform="rotate(45, 544, 118)" opacity="0.38"></rect><rect width="210" height="3" x="-67" y="317.5" rx="1.5" transform="rotate(45, 38, 319)" opacity="0.99"></rect><rect width="105" height="3" x="330.5" y="354.5" rx="1.5" transform="rotate(45, 383, 356)" opacity="0.93"></rect><rect width="393" height="3" x="-159.5" y="452.5" rx="1.5" transform="rotate(45, 37, 454)" opacity="0.15"></rect><rect width="462" height="3" x="-158" y="381.5" rx="1.5" transform="rotate(45, 73, 383)" opacity="0.63"></rect><rect width="210" height="3" x="126" y="164.5" rx="1.5" transform="rotate(45, 231, 166)" opacity="0.26"></rect><rect width="182" height="3" x="593" y="342.5" rx="1.5" transform="rotate(45, 684, 344)" opacity="0.48"></rect><rect width="360" height="3" x="134" y="527.5" rx="1.5" transform="rotate(45, 314, 529)" opacity="0.78"></rect><rect width="482" height="3" x="332" y="643.5" rx="1.5" transform="rotate(45, 573, 645)" opacity="0.26"></rect><rect width="218" height="3" x="557" y="204.5" rx="1.5" transform="rotate(45, 666, 206)" opacity="0.89"></rect><rect width="246" height="3" x="587" y="606.5" rx="1.5" transform="rotate(45, 710, 608)" opacity="0.60"></rect><rect width="184" height="3" x="159" y="495.5" rx="1.5" transform="rotate(45, 251, 497)" opacity="0.61"></rect><rect width="641" height="3" x="313.5" y="530.5" rx="1.5" transform="rotate(45, 634, 532)" opacity="0.07"></rect><rect width="529" height="3" x="-219.5" y="674.5" rx="1.5" transform="rotate(45, 45, 676)" opacity="0.94"></rect><rect width="120" height="3" x="538" y="29.5" rx="1.5" transform="rotate(45, 598, 31)" opacity="0.67"></rect><rect width="200" height="3" x="85" y="694.5" rx="1.5" transform="rotate(45, 185, 696)" opacity="0.68"></rect><rect width="476" height="3" x="462" y="137.5" rx="1.5" transform="rotate(45, 700, 139)" opacity="0.79"></rect><rect width="483" height="3" x="93.5" y="744.5" rx="1.5" transform="rotate(45, 335, 746)" opacity="0.31"></rect><rect width="130" height="3" x="465" y="563.5" rx="1.5" transform="rotate(45, 530, 565)" opacity="0.51"></rect><rect width="166" height="3" x="38" y="619.5" rx="1.5" transform="rotate(45, 121, 621)" opacity="0.32"></rect><rect width="353" height="3" x="9.5" y="532.5" rx="1.5" transform="rotate(45, 186, 534)" opacity="0.38"></rect><rect width="164" height="3" x="681" y="681.5" rx="1.5" transform="rotate(45, 763, 683)" opacity="0.14"></rect><rect width="469" height="3" x="-44.5" y="283.5" rx="1.5" transform="rotate(45, 190, 285)" opacity="0.88"></rect><rect width="638" height="3" x="29" y="628.5" rx="1.5" transform="rotate(45, 348, 630)" opacity="0.46"></rect><rect width="376" height="3" x="272" y="117.5" rx="1.5" transform="rotate(45, 460, 119)" opacity="0.73"></rect><rect width="503" height="3" x="106.5" y="231.5" rx="1.5" transform="rotate(45, 358, 233)" opacity="0.39"></rect><rect width="519" height="3" x="-49.5" y="425.5" rx="1.5" transform="rotate(45, 210, 427)" opacity="0.93"></rect><rect width="90" height="3" x="717" y="100.5" rx="1.5" transform="rotate(45, 762, 102)" opacity="0.16"></rect><rect width="239" height="3" x="641.5" y="29.5" rx="1.5" transform="rotate(45, 761, 31)" opacity="0.76"></rect><rect width="457" height="3" x="34.5" y="658.5" rx="1.5" transform="rotate(45, 263, 660)" opacity="0.21"></rect><rect width="418" height="3" x="471" y="429.5" rx="1.5" transform="rotate(45, 680, 431)" opacity="0.69"></rect><rect width="357" height="3" x="249.5" y="201.5" rx="1.5" transform="rotate(45, 428, 203)" opacity="0.90"></rect><rect width="36" height="3" x="123" y="328.5" rx="1.5" transform="rotate(45, 141, 330)" opacity="0.68"></rect><rect width="303" height="3" x="571.5" y="282.5" rx="1.5" transform="rotate(45, 723, 284)" opacity="0.81"></rect><rect width="407" height="3" x="-10.5" y="607.5" rx="1.5" transform="rotate(45, 193, 609)" opacity="0.77"></rect><rect width="85" height="3" x="714.5" y="476.5" rx="1.5" transform="rotate(45, 757, 478)" opacity="0.85"></rect><rect width="385" height="3" x="494.5" y="45.5" rx="1.5" transform="rotate(45, 687, 47)" opacity="0.09"></rect></g></svg>