<svg xmlns="http://www.w3.org/2000/svg" version="1.1" xmlns:xlink="http://www.w3.org/1999/xlink" xmlns:svgjs="http://svgjs.dev/svgjs" viewBox="0 0 800 800"><defs><linearGradient x1="50%" y1="0%" x2="50%" y2="100%" id="ffflurry-grad" gradientTransform="rotate(270)"><stop stop-color="hsv(0, 0%, 0%)" stop-opacity="1" offset="0%"></stop><stop stop-color="hsl(233, 100%, 67%)" stop-opacity="1" offset="45%"></stop><stop stop-color="hsl(184, 100%, 50%)" stop-opacity="1" offset="100%"></stop></linearGradient></defs><rect width="100%" height="100%" fill="hsv(0, 0%, 0%)" fill-opacity="0"></rect><g fill="url(#ffflurry-grad)"><rect width="1581" height="3" x="-120.5" y="625.5" rx="1.5" transform="rotate(90, 670, 627)" opacity="0.31"></rect><rect width="477" height="3" x="477.5" y="255.5" rx="1.5" transform="rotate(90, 716, 257)" opacity="0.40"></rect><rect width="251" height="3" x="-27.5" y="143.5" rx="1.5" transform="rotate(90, 98, 145)" opacity="0.54"></rect><rect width="1321" height="3" x="-149.5" y="407.5" rx="1.5" transform="rotate(90, 511, 409)" opacity="0.27"></rect><rect width="1113" height="3" x="-74.5" y="224.5" rx="1.5" transform="rotate(90, 482, 226)" opacity="0.60"></rect><rect width="2058" height="3" x="-651" y="652.5" rx="1.5" transform="rotate(90, 378, 654)" opacity="0.96"></rect><rect width="1878" height="3" x="-823" y="604.5" rx="1.5" transform="rotate(90, 116, 606)" opacity="0.99"></rect><rect width="185" height="3" x="126.5" y="342.5" rx="1.5" transform="rotate(90, 219, 344)" opacity="0.89"></rect><rect width="1020" height="3" x="111" y="68.5" rx="1.5" transform="rotate(90, 621, 70)" opacity="0.96"></rect><rect width="352" height="3" x="183" y="148.5" rx="1.5" transform="rotate(90, 359, 150)" opacity="0.33"></rect><rect width="321" height="3" x="153.5" y="45.5" rx="1.5" transform="rotate(90, 314, 47)" opacity="0.15"></rect></g></svg>