<svg xmlns="http://www.w3.org/2000/svg" version="1.1" xmlns:xlink="http://www.w3.org/1999/xlink" xmlns:svgjs="http://svgjs.dev/svgjs" viewBox="0 0 800 800"><defs><linearGradient x1="50%" y1="0%" x2="50%" y2="100%" id="ffflurry-grad" gradientTransform="rotate(270)"><stop stop-color="hsv(0, 0%, 0%)" stop-opacity="1" offset="0%"></stop><stop stop-color="hsl(233, 100%, 67%)" stop-opacity="1" offset="45%"></stop><stop stop-color="hsl(184, 100%, 50%)" stop-opacity="1" offset="100%"></stop></linearGradient></defs><rect width="100%" height="100%" fill-opacity="0" fill="hsv(0, 0%, 0%)"></rect><g fill="url(#ffflurry-grad)"><rect width="181" height="3" x="356.5" y="618.5" rx="1.5" transform="rotate(90, 447, 620)" opacity="0.16"></rect><rect width="71" height="3" x="585.5" y="742.5" rx="1.5" transform="rotate(90, 621, 744)" opacity="0.77"></rect><rect width="138" height="3" x="46" y="112.5" rx="1.5" transform="rotate(90, 115, 114)" opacity="0.50"></rect><rect width="140" height="3" x="16" y="378.5" rx="1.5" transform="rotate(90, 86, 380)" opacity="0.14"></rect><rect width="180" height="3" x="273" y="122.5" rx="1.5" transform="rotate(90, 363, 124)" opacity="0.21"></rect><rect width="162" height="3" x="87" y="662.5" rx="1.5" transform="rotate(90, 168, 664)" opacity="0.38"></rect><rect width="177" height="3" x="535.5" y="383.5" rx="1.5" transform="rotate(90, 624, 385)" opacity="0.33"></rect><rect width="145" height="3" x="522.5" y="162.5" rx="1.5" transform="rotate(90, 595, 164)" opacity="0.96"></rect><rect width="177" height="3" x="216.5" y="372.5" rx="1.5" transform="rotate(90, 305, 374)" opacity="0.77"></rect><rect width="78" height="3" x="689" y="92.5" rx="1.5" transform="rotate(90, 728, 94)" opacity="0.32"></rect><rect width="131" height="3" x="650.5" y="602.5" rx="1.5" transform="rotate(90, 716, 604)" opacity="0.97"></rect></g></svg>