<svg xmlns="http://www.w3.org/2000/svg" version="1.1" xmlns:xlink="http://www.w3.org/1999/xlink" xmlns:svgjs="http://svgjs.dev/svgjs" viewBox="0 0 800 800"><defs><linearGradient x1="50%" y1="0%" x2="50%" y2="100%" id="ffflurry-grad" gradientTransform="rotate(270)"><stop stop-color="hsl(240, 100%, 3%)" stop-opacity="1" offset="0%"></stop><stop stop-color="hsl(0, 0%, 10%)" stop-opacity="1" offset="45%"></stop><stop stop-color="hsl(220, 85%, 13%)" stop-opacity="1" offset="100%"></stop></linearGradient></defs><rect width="100%" height="100%" fill="hsl(240, 100%, 3%)"></rect><g fill="url(#ffflurry-grad)"><rect width="242" height="3" x="613" y="772.5" rx="1.5" transform="rotate(45, 734, 774)" opacity="0.77"></rect><rect width="201" height="3" x="651.5" y="254.5" rx="1.5" transform="rotate(45, 752, 256)" opacity="0.45"></rect><rect width="191" height="3" x="-58.5" y="546.5" rx="1.5" transform="rotate(45, 37, 548)" opacity="0.72"></rect><rect width="205" height="3" x="161.5" y="110.5" rx="1.5" transform="rotate(45, 264, 112)" opacity="0.29"></rect><rect width="365" height="3" x="243.5" y="94.5" rx="1.5" transform="rotate(45, 426, 96)" opacity="0.16"></rect><rect width="136" height="3" x="536" y="449.5" rx="1.5" transform="rotate(45, 604, 451)" opacity="0.68"></rect><rect width="289" height="3" x="401.5" y="509.5" rx="1.5" transform="rotate(45, 546, 511)" opacity="0.18"></rect><rect width="36" height="3" x="678" y="577.5" rx="1.5" transform="rotate(45, 696, 579)" opacity="0.54"></rect><rect width="306" height="3" x="-18" y="695.5" rx="1.5" transform="rotate(45, 135, 697)" opacity="0.14"></rect><rect width="115" height="3" x="97.5" y="746.5" rx="1.5" transform="rotate(45, 155, 748)" opacity="0.21"></rect><rect width="477" height="3" x="-214.5" y="729.5" rx="1.5" transform="rotate(45, 24, 731)" opacity="0.75"></rect><rect width="364" height="3" x="58" y="568.5" rx="1.5" transform="rotate(45, 240, 570)" opacity="0.31"></rect><rect width="43" height="3" x="734.5" y="341.5" rx="1.5" transform="rotate(45, 756, 343)" opacity="0.36"></rect><rect width="630" height="3" x="29" y="70.5" rx="1.5" transform="rotate(45, 344, 72)" opacity="0.94"></rect><rect width="456" height="3" x="73" y="507.5" rx="1.5" transform="rotate(45, 301, 509)" opacity="0.52"></rect><rect width="121" height="3" x="228.5" y="178.5" rx="1.5" transform="rotate(45, 289, 180)" opacity="0.59"></rect><rect width="185" height="3" x="672.5" y="510.5" rx="1.5" transform="rotate(45, 765, 512)" opacity="0.89"></rect><rect width="583" height="3" x="384.5" y="674.5" rx="1.5" transform="rotate(45, 676, 676)" opacity="0.45"></rect><rect width="278" height="3" x="141" y="353.5" rx="1.5" transform="rotate(45, 280, 355)" opacity="0.47"></rect><rect width="558" height="3" x="169" y="551.5" rx="1.5" transform="rotate(45, 448, 553)" opacity="0.10"></rect><rect width="331" height="3" x="38.5" y="772.5" rx="1.5" transform="rotate(45, 204, 774)" opacity="0.42"></rect><rect width="220" height="3" x="150" y="716.5" rx="1.5" transform="rotate(45, 260, 718)" opacity="0.60"></rect><rect width="600" height="3" x="86" y="742.5" rx="1.5" transform="rotate(45, 386, 744)" opacity="0.38"></rect><rect width="171" height="3" x="198.5" y="265.5" rx="1.5" transform="rotate(45, 284, 267)" opacity="0.20"></rect><rect width="364" height="3" x="566" y="420.5" rx="1.5" transform="rotate(45, 748, 422)" opacity="0.65"></rect><rect width="241" height="3" x="32.5" y="150.5" rx="1.5" transform="rotate(45, 153, 152)" opacity="0.22"></rect><rect width="365" height="3" x="-49.5" y="627.5" rx="1.5" transform="rotate(45, 133, 629)" opacity="0.52"></rect><rect width="138" height="3" x="126" y="696.5" rx="1.5" transform="rotate(45, 195, 698)" opacity="0.73"></rect><rect width="325" height="3" x="61.5" y="643.5" rx="1.5" transform="rotate(45, 224, 645)" opacity="0.53"></rect><rect width="92" height="3" x="365" y="23.5" rx="1.5" transform="rotate(45, 411, 25)" opacity="0.30"></rect><rect width="111" height="3" x="513.5" y="766.5" rx="1.5" transform="rotate(45, 569, 768)" opacity="0.95"></rect><rect width="188" height="3" x="207" y="765.5" rx="1.5" transform="rotate(45, 301, 767)" opacity="0.73"></rect><rect width="357" height="3" x="-132.5" y="39.5" rx="1.5" transform="rotate(45, 46, 41)" opacity="0.14"></rect><rect width="504" height="3" x="-148" y="97.5" rx="1.5" transform="rotate(45, 104, 99)" opacity="0.99"></rect><rect width="540" height="3" x="413" y="479.5" rx="1.5" transform="rotate(45, 683, 481)" opacity="0.65"></rect><rect width="333" height="3" x="601.5" y="736.5" rx="1.5" transform="rotate(45, 768, 738)" opacity="0.40"></rect><rect width="594" height="3" x="-175" y="482.5" rx="1.5" transform="rotate(45, 122, 484)" opacity="0.91"></rect><rect width="322" height="3" x="-119" y="335.5" rx="1.5" transform="rotate(45, 42, 337)" opacity="0.42"></rect><rect width="249" height="3" x="619.5" y="150.5" rx="1.5" transform="rotate(45, 744, 152)" opacity="0.58"></rect><rect width="55" height="3" x="677.5" y="55.5" rx="1.5" transform="rotate(45, 705, 57)" opacity="0.60"></rect><rect width="641" height="3" x="-213.5" y="282.5" rx="1.5" transform="rotate(45, 107, 284)" opacity="0.81"></rect><rect width="512" height="3" x="-112" y="32.5" rx="1.5" transform="rotate(45, 144, 34)" opacity="0.88"></rect><rect width="224" height="3" x="494" y="187.5" rx="1.5" transform="rotate(45, 606, 189)" opacity="0.70"></rect><rect width="144" height="3" x="251" y="649.5" rx="1.5" transform="rotate(45, 323, 651)" opacity="0.81"></rect><rect width="479" height="3" x="385.5" y="558.5" rx="1.5" transform="rotate(45, 625, 560)" opacity="0.75"></rect><rect width="331" height="3" x="-138.5" y="473.5" rx="1.5" transform="rotate(45, 27, 475)" opacity="0.07"></rect><rect width="59" height="3" x="444.5" y="346.5" rx="1.5" transform="rotate(45, 474, 348)" opacity="0.93"></rect><rect width="278" height="3" x="624" y="670.5" rx="1.5" transform="rotate(45, 763, 672)" opacity="0.75"></rect><rect width="363" height="3" x="374.5" y="291.5" rx="1.5" transform="rotate(45, 556, 293)" opacity="0.60"></rect><rect width="233" height="3" x="-73.5" y="225.5" rx="1.5" transform="rotate(45, 43, 227)" opacity="0.53"></rect><rect width="450" height="3" x="174" y="496.5" rx="1.5" transform="rotate(45, 399, 498)" opacity="0.36"></rect><rect width="335" height="3" x="308.5" y="731.5" rx="1.5" transform="rotate(45, 476, 733)" opacity="0.25"></rect><rect width="435" height="3" x="-128.5" y="768.5" rx="1.5" transform="rotate(45, 89, 770)" opacity="0.70"></rect><rect width="373" height="3" x="574.5" y="603.5" rx="1.5" transform="rotate(45, 761, 605)" opacity="0.75"></rect><rect width="529" height="3" x="246.5" y="434.5" rx="1.5" transform="rotate(45, 511, 436)" opacity="0.57"></rect><rect width="239" height="3" x="294.5" y="626.5" rx="1.5" transform="rotate(45, 414, 628)" opacity="0.41"></rect><rect width="445" height="3" x="-178.5" y="137.5" rx="1.5" transform="rotate(45, 44, 139)" opacity="0.42"></rect><rect width="49" height="3" x="632.5" y="756.5" rx="1.5" transform="rotate(45, 657, 758)" opacity="0.64"></rect><rect width="423" height="3" x="-15.5" y="81.5" rx="1.5" transform="rotate(45, 196, 83)" opacity="0.36"></rect><rect width="692" height="3" x="238" y="72.5" rx="1.5" transform="rotate(45, 584, 74)" opacity="0.73"></rect><rect width="62" height="3" x="298" y="416.5" rx="1.5" transform="rotate(45, 329, 418)" opacity="0.40"></rect><rect width="434" height="3" x="-10" y="448.5" rx="1.5" transform="rotate(45, 207, 450)" opacity="0.24"></rect><rect width="77" height="3" x="388.5" y="425.5" rx="1.5" transform="rotate(45, 427, 427)" opacity="0.55"></rect><rect width="210" height="3" x="534" y="401.5" rx="1.5" transform="rotate(45, 639, 403)" opacity="0.50"></rect><rect width="197" height="3" x="563.5" y="260.5" rx="1.5" transform="rotate(45, 662, 262)" opacity="0.56"></rect><rect width="131" height="3" x="557.5" y="328.5" rx="1.5" transform="rotate(45, 623, 330)" opacity="0.98"></rect><rect width="417" height="3" x="353.5" y="371.5" rx="1.5" transform="rotate(45, 562, 373)" opacity="0.11"></rect><rect width="238" height="3" x="56" y="216.5" rx="1.5" transform="rotate(45, 175, 218)" opacity="0.29"></rect><rect width="126" height="3" x="327" y="318.5" rx="1.5" transform="rotate(45, 390, 320)" opacity="0.39"></rect><rect width="425" height="3" x="270.5" y="150.5" rx="1.5" transform="rotate(45, 483, 152)" opacity="0.69"></rect><rect width="60" height="3" x="228" y="27.5" rx="1.5" transform="rotate(45, 258, 29)" opacity="0.81"></rect><rect width="248" height="3" x="69" y="319.5" rx="1.5" transform="rotate(45, 193, 321)" opacity="0.75"></rect><rect width="480" height="3" x="144" y="206.5" rx="1.5" transform="rotate(45, 384, 208)" opacity="0.38"></rect><rect width="635" height="3" x="-190.5" y="386.5" rx="1.5" transform="rotate(45, 127, 388)" opacity="0.57"></rect><rect width="456" height="3" x="-185" y="415.5" rx="1.5" transform="rotate(45, 43, 417)" opacity="0.63"></rect><rect width="55" height="3" x="477.5" y="41.5" rx="1.5" transform="rotate(45, 505, 43)" opacity="0.74"></rect><rect width="294" height="3" x="535" y="355.5" rx="1.5" transform="rotate(45, 682, 357)" opacity="0.09"></rect><rect width="299" height="3" x="-42.5" y="570.5" rx="1.5" transform="rotate(45, 107, 572)" opacity="0.39"></rect><rect width="195" height="3" x="446.5" y="611.5" rx="1.5" transform="rotate(45, 544, 613)" opacity="0.54"></rect><rect width="361" height="3" x="308.5" y="238.5" rx="1.5" transform="rotate(45, 489, 240)" opacity="0.16"></rect><rect width="73" height="3" x="21.5" y="666.5" rx="1.5" transform="rotate(45, 58, 668)" opacity="0.69"></rect><rect width="55" height="3" x="547.5" y="689.5" rx="1.5" transform="rotate(45, 575, 691)" opacity="0.59"></rect></g></svg>