<svg xmlns="http://www.w3.org/2000/svg" version="1.1" xmlns:xlink="http://www.w3.org/1999/xlink" xmlns:svgjs="http://svgjs.dev/svgjs" viewBox="0 0 800 800"><rect width="100%" height="100%" fill="black"></rect><g fill="hsl(205, 69%, 50%)"><rect width="737" height="1" x="-202.5" y="63.5" rx="0.5" transform="rotate(90, 166, 64)"></rect><rect width="789" height="1" x="-330.5" y="517.5" rx="0.5" transform="rotate(90, 64, 518)"></rect><rect width="499" height="1" x="55.5" y="697.5" rx="0.5" transform="rotate(90, 305, 698)"></rect><rect width="194" height="1" x="458" y="49.5" rx="0.5" transform="rotate(90, 555, 50)"></rect><rect width="396" height="1" x="458" y="151.5" rx="0.5" transform="rotate(90, 656, 152)"></rect><rect width="487" height="1" x="107.5" y="466.5" rx="0.5" transform="rotate(90, 351, 467)"></rect><rect width="438" height="1" x="398" y="526.5" rx="0.5" transform="rotate(90, 617, 527)"></rect><rect width="536" height="1" x="-194" y="382.5" rx="0.5" transform="rotate(90, 74, 383)"></rect><rect width="571" height="1" x="430.5" y="685.5" rx="0.5" transform="rotate(90, 716, 686)"></rect><rect width="379" height="1" x="493.5" y="410.5" rx="0.5" transform="rotate(90, 683, 411)"></rect><rect width="691" height="1" x="-36.5" y="199.5" rx="0.5" transform="rotate(90, 309, 200)"></rect><rect width="596" height="1" x="-141" y="742.5" rx="0.5" transform="rotate(90, 157, 743)"></rect><rect width="284" height="1" x="330" y="558.5" rx="0.5" transform="rotate(90, 472, 559)"></rect><rect width="1002" height="1" x="231" y="246.5" rx="0.5" transform="rotate(90, 732, 247)"></rect><rect width="479" height="1" x="-74.5" y="225.5" rx="0.5" transform="rotate(90, 165, 226)"></rect><rect width="546" height="1" x="-226" y="216.5" rx="0.5" transform="rotate(90, 47, 217)"></rect><rect width="610" height="1" x="150" y="236.5" rx="0.5" transform="rotate(90, 455, 237)"></rect><rect width="73" height="1" x="11.5" y="702.5" rx="0.5" transform="rotate(90, 48, 703)"></rect><rect width="992" height="1" x="-323" y="580.5" rx="0.5" transform="rotate(90, 173, 581)"></rect><rect width="153" height="1" x="434.5" y="728.5" rx="0.5" transform="rotate(90, 511, 729)"></rect><rect width="205" height="1" x="116.5" y="379.5" rx="0.5" transform="rotate(90, 219, 380)"></rect></g></svg>