<svg xmlns="http://www.w3.org/2000/svg" version="1.1" xmlns:xlink="http://www.w3.org/1999/xlink" xmlns:svgjs="http://svgjs.dev/svgjs" viewBox="0 0 800 800" opacity="0.59"><defs><linearGradient x1="50%" y1="0%" x2="50%" y2="100%" id="ggglitch-grad"><stop stop-color="hsla(184, 100%, 24%, 1.00)" stop-opacity="1" offset="45%"></stop><stop stop-color="hsla(242, 100%, 10%, 1.00)" stop-opacity="1" offset="100%"></stop></linearGradient><clipPath id="SvgjsClipPath1408"><rect width="66.66666666666667" height="800" x="0" y="0"></rect><rect width="66.66666666666667" height="800" x="133.33333333333334" y="0"></rect><rect width="66.66666666666667" height="800" x="266.6666666666667" y="0"></rect><rect width="66.66666666666667" height="800" x="400" y="0"></rect><rect width="66.66666666666667" height="800" x="533.3333333333334" y="0"></rect><rect width="66.66666666666667" height="800" x="666.6666666666667" y="0"></rect><rect width="66.66666666666667" height="800" x="800" y="0"></rect><rect width="66.66666666666667" height="800" x="933.3333333333334" y="0"></rect><rect width="66.66666666666667" height="800" x="1066.6666666666667" y="0"></rect><rect width="66.66666666666667" height="800" x="1200" y="0"></rect><rect width="66.66666666666667" height="800" x="1333.3333333333335" y="0"></rect><rect width="66.66666666666667" height="800" x="1466.6666666666667" y="0"></rect><rect width="66.66666666666667" height="800" x="1600" y="0"></rect></clipPath><clipPath id="SvgjsClipPath1409"><rect width="66.66666666666667" height="800" x="66.66666666666667" y="0"></rect><rect width="66.66666666666667" height="800" x="200" y="0"></rect><rect width="66.66666666666667" height="800" x="333.3333333333333" y="0"></rect><rect width="66.66666666666667" height="800" x="466.6666666666667" y="0"></rect><rect width="66.66666666666667" height="800" x="600.0000000000001" y="0"></rect><rect width="66.66666666666667" height="800" x="733.3333333333334" y="0"></rect><rect width="66.66666666666667" height="800" x="866.6666666666667" y="0"></rect><rect width="66.66666666666667" height="800" x="1000.0000000000001" y="0"></rect><rect width="66.66666666666667" height="800" x="1133.3333333333333" y="0"></rect><rect width="66.66666666666667" height="800" x="1266.6666666666667" y="0"></rect><rect width="66.66666666666667" height="800" x="1400" y="0"></rect><rect width="66.66666666666667" height="800" x="1533.3333333333333" y="0"></rect></clipPath></defs><g stroke-width="38" stroke="url(#ggglitch-grad)" fill="none"><polygon points="-19,19 19,-19 819,781 781,819" stroke="none" fill="url(#ggglitch-grad)" clip-path="url(&quot;#SvgjsClipPath1408&quot;)" opacity="0.25" transform="translate(0 25)"></polygon><polygon points="-19,19 19,-19 819,781 781,819" stroke="none" fill="url(#ggglitch-grad)" clip-path="url(&quot;#SvgjsClipPath1409&quot;)"></polygon><polygon points="781,-19 819,19 19,819 -19,781" stroke="none" fill="url(#ggglitch-grad)" clip-path="url(&quot;#SvgjsClipPath1408&quot;)" opacity="0.25" transform="translate(0 25)"></polygon><polygon points="781,-19 819,19 19,819 -19,781" stroke="none" fill="url(#ggglitch-grad)" clip-path="url(&quot;#SvgjsClipPath1409&quot;)"></polygon></g></svg>