<svg xmlns="http://www.w3.org/2000/svg" version="1.1" xmlns:xlink="http://www.w3.org/1999/xlink" xmlns:svgjs="http://svgjs.dev/svgjs" viewBox="0 0 800 800"><defs><linearGradient x1="50%" y1="0%" x2="50%" y2="100%" id="ffflurry-grad" gradientTransform="rotate(270)"><stop stop-color="hsv(0, 0%, 0%)" stop-opacity="1" offset="0%"></stop><stop stop-color="hsl(233, 100%, 67%)" stop-opacity="1" offset="45%"></stop><stop stop-color="hsl(184, 100%, 50%)" stop-opacity="1" offset="100%"></stop></linearGradient></defs><rect width="100%" height="100%" fill="hsv(0, 0%, 0%)"></rect><g fill="url(#ffflurry-grad)"><rect width="733" height="3" x="5.5" y="59.5" rx="1.5" transform="rotate(90, 372, 61)" opacity="0.13"></rect><rect width="1192" height="3" x="-312" y="408.5" rx="1.5" transform="rotate(90, 284, 410)" opacity="0.64"></rect><rect width="985" height="3" x="8.5" y="440.5" rx="1.5" transform="rotate(90, 501, 442)" opacity="0.60"></rect><rect width="981" height="3" x="-320.5" y="663.5" rx="1.5" transform="rotate(90, 170, 665)" opacity="0.58"></rect><rect width="1455" height="3" x="-41.5" y="263.5" rx="1.5" transform="rotate(90, 686, 265)" opacity="0.60"></rect><rect width="1374" height="3" x="-603" y="368.5" rx="1.5" transform="rotate(90, 84, 370)" opacity="0.60"></rect><rect width="162" height="3" x="635" y="551.5" rx="1.5" transform="rotate(90, 716, 553)" opacity="0.57"></rect><rect width="555" height="3" x="389.5" y="73.5" rx="1.5" transform="rotate(90, 667, 75)" opacity="0.65"></rect><rect width="523" height="3" x="-124.5" y="121.5" rx="1.5" transform="rotate(90, 137, 123)" opacity="0.25"></rect><rect width="1328" height="3" x="-226" y="201.5" rx="1.5" transform="rotate(90, 438, 203)" opacity="1.00"></rect><rect width="691" height="3" x="184.5" y="698.5" rx="1.5" transform="rotate(90, 530, 700)" opacity="0.49"></rect></g></svg>